#!OML:ASF X:\für Bonn\!DataBase\2005_08_10_Bjorn_Final\c3d\bjorn.ASF
:FULLY-SPECIFIED
:DEGREES
151
root 1.5326 19.1363 2.3102 -175.089 -1.11903 -179.084
lowerback -3.43724 1.88842 5.71488
upperback 4.99541 1.99471 -0.557403
thorax 7.40912 1.23925 -3.60079
lowerneck -17.6824 -3.73847 -0.10437
upperneck 7.4301 -4.92458 -0.967789
head 5.05691 -2.50847 -0.746142
rclavicle -3.62782e-015 1.03368e-014
rhumerus 72.2144 1.171 -75.4546
rradius 8.7752
rwrist 45.3178
rhand -10.6449 10.4436
rfingers 7.12502
rthumb 15.3625 -18.9657
lclavicle -3.62782e-015 1.03368e-014
lhumerus 75.5951 -9.13169 67.2988
lradius 10.5987
lwrist -40.9654
lhand -9.42518 -3.68072
lfingers 7.12502
lthumb 16.5371 25.6346
rfemur -14.1784 -15.0302 19.0702
rtibia 31.3537
rfoot -20.8917 21.1791
rtoes -11.7324
lfemur -14.5379 7.4397 -16.6822
ltibia 32.8263
lfoot -19.4185 -7.43445
ltoes -9.48842
152
root 1.5429 19.1351 2.28645 -175.123 -0.990115 -178.959
lowerback -3.77596 1.94154 5.82216
upperback 5.00125 2.04124 -0.556707
thorax 7.62359 1.27549 -3.64625
lowerneck -17.6285 -3.74759 -0.107312
upperneck 7.45575 -4.93834 -0.932504
head 5.0574 -2.51182 -0.735086
rclavicle 3.52843e-015 2.38542e-015
rhumerus 72.3726 1.13624 -75.6457
rradius 8.80108
rwrist 45.3211
rhand -10.2901 10.3966
rfingers 7.12502
rthumb 15.7043 -18.9861
lclavicle 3.52843e-015 2.38542e-015
lhumerus 75.8204 -8.91501 67.498
lradius 10.6068
lwrist -42.1951
lhand -9.29604 -3.78846
lfingers 7.12502
lthumb 16.6615 25.5164
rfemur -13.9693 -16.4482 19.0746
rtibia 31.1522
rfoot -20.3835 22.4918
rtoes -10.7303
lfemur -14.3775 8.50797 -16.4411
ltibia 32.7131
lfoot -19.3719 -8.39404
ltoes -9.25531
153
root 1.55346 19.1345 2.26411 -175.128 -0.868164 -178.855
lowerback -4.09823 1.98291 5.88361
upperback 4.98614 2.07682 -0.544752
thorax 7.80206 1.30261 -3.65556
lowerneck -17.6157 -3.74491 -0.0888465
upperneck 7.54311 -4.93368 -0.954715
head 5.08193 -2.50919 -0.745482
rclavicle 3.50358e-015 1.88845e-014
rhumerus 72.488 1.12698 -75.8198
rradius 8.87745
rwrist 45.181
rhand -9.8944 10.3694
rfingers 7.12502
rthumb 16.0853 -18.983
lclavicle 3.50358e-015 1.88845e-014
lhumerus 75.9985 -8.68877 67.7772
lradius 10.6
lwrist -43.4759
lhand -9.15409 -3.89748
lfingers 7.12502
lthumb 16.7981 25.3959
rfemur -13.8323 -17.9228 19.0582
rtibia 31.0025
rfoot -19.7265 23.8452
rtoes -9.7928
lfemur -14.2974 9.73364 -16.2152
ltibia 32.6543
lfoot -19.2931 -9.51831
ltoes -9.05168
154
root 1.56467 19.1333 2.24308 -175.12 -0.749086 -178.751
lowerback -4.42553 2.02628 5.92497
upperback 4.99085 2.11279 -0.520187
thorax 8.00383 1.32869 -3.63946
lowerneck -17.6914 -3.74632 -0.0798589
upperneck 7.67392 -4.93347 -0.965323
head 5.13468 -2.50812 -0.753718
rclavicle -3.34704e-014 8.15017e-015
rhumerus 72.6253 1.10914 -75.9753
rradius 8.94375
rwrist 44.9284
rhand -9.56144 10.3396
rfingers 7.12502
rthumb 16.4059 -18.9866
lclavicle -3.34704e-014 8.15017e-015
lhumerus 76.199 -8.45966 68.0674
lradius 10.5968
lwrist -44.6715
lhand -8.96117 -4.0447
lfingers 7.12502
lthumb 16.9838 25.2328
rfemur -13.7366 -19.3945 19.0446
rtibia 30.8943
rfoot -18.9207 25.2836
rtoes -8.67364
lfemur -14.2553 10.9485 -15.9809
ltibia 32.6275
lfoot -19.1515 -10.6832
ltoes -8.52071
